<svg xmlns="http://www.w3.org/2000/svg" viewBox="0 0 1280 488" preserveAspectRatio="xMidYMax meet">
  <path fill="#004a98" d="M0 438h95V323h12v-9h38v9h7v115h43v-73h11v-5h53v-54h7v-6h52v6h7v132h26V328h21v-7h24v5h99c25-128 57-210 96-265C625 15 659 0 698 0c42 0 80 17 116 52 34 34 68 88 103 161l9-15h8l11 16h33l10 18v85h45v-7h32v12h14v25h11v91h12V301h12v-14h61v11h17v14h30v20h17v106h46v50H0v-50Zm454-103h41v53l16-20 19 20v50h36v-51h29v51h7v-83h9v-61h13v-9h34v9h8v100h8v-25h10v-12h25v-12h54V233h8l9-15c-28-62-56-109-86-140-31-32-62-48-96-48-32 0-60 14-84 43-31 37-58 104-82 199l-8 34h30v29Z"/>
</svg>
